HIERARCHY
ROOT hip
{
	OFFSET 0.000000 0.000000 0.000000 
	CHANNELS 6 Xposition Yposition Zposition Xrotation Zrotation Yrotation
	JOINT abdomen
	{
		OFFSET 0.000000 3.402643 0.000000 
		CHANNELS 3 Xrotation Zrotation Yrotation
		JOINT chest
		{
			OFFSET 0.000000 8.438565 -0.680529 
			CHANNELS 3 Xrotation Zrotation Yrotation
			JOINT neck
			{
				OFFSET 0.000000 10.207942 -0.272212 
				CHANNELS 3 Xrotation Zrotation Yrotation
				JOINT head
				{
					OFFSET 0.000000 3.130431 0.000000 
					CHANNELS 3 Xrotation Zrotation Yrotation
					End Site
					{
						OFFSET 0.000000 3.130435 0.000000 
					}
				}
			}
			JOINT lCollar
			{
				OFFSET 3.470700 6.669187 -0.816635 
				CHANNELS 3 Yrotation Zrotation Xrotation
				JOINT lShldr
				{
					OFFSET 3.198488 0.000000 0.000000 
					CHANNELS 3 Zrotation Yrotation Xrotation
					JOINT lForeArm
					{
						OFFSET 10.139888 0.000000 0.000000 
						CHANNELS 3 Yrotation Zrotation Xrotation
						JOINT lHand
						{
							OFFSET 8.370511 0.000000 0.000000 
							CHANNELS 3 Zrotation Yrotation Xrotation
							End Site
							{
								OFFSET 4.083176 0.000000 0.000000 
							}
						}
					}
				}
			}
			JOINT rCollar
			{
				OFFSET -3.470700 6.669187 -0.816635 
				CHANNELS 3 Yrotation Zrotation Xrotation
				JOINT rShldr
				{
					OFFSET -3.198488 0.000000 0.000000 
					CHANNELS 3 Zrotation Yrotation Xrotation
					JOINT rForeArm
					{
						OFFSET -10.139888 0.000000 0.000000 
						CHANNELS 3 Yrotation Zrotation Xrotation
						JOINT rHand
						{
							OFFSET -8.370511 0.000000 0.000000 
							CHANNELS 3 Zrotation Yrotation Xrotation
							End Site
							{
								OFFSET -4.083176 0.000000 0.000000 
							}
						}
					}
				}
			}
		}
	}
	JOINT lThigh
	{
		OFFSET 5.308129 -1.633274 1.361059 
		CHANNELS 3 Xrotation Zrotation Yrotation
		JOINT lShin
		{
			OFFSET -2.041588 -20.007561 0.000000 
			CHANNELS 3 Xrotation Zrotation Yrotation
			JOINT lFoot
			{
				OFFSET 0.000000 -19.190928 -1.224953 
				CHANNELS 3 Xrotation Yrotation Zrotation
				End Site
				{
					OFFSET 0.000000 -2.449906 4.627600 
				}
			}
		}
	}
	JOINT rThigh
	{
		OFFSET -5.308129 -1.633274 1.361059 
		CHANNELS 3 Xrotation Zrotation Yrotation
		JOINT rShin
		{
			OFFSET 2.041588 -20.007561 0.000000 
			CHANNELS 3 Xrotation Zrotation Yrotation
			JOINT rFoot
			{
				OFFSET 0.000000 -19.190928 -1.224953 
				CHANNELS 3 Xrotation Yrotation Zrotation
				End Site
				{
					OFFSET 0.000000 -2.449906 4.627600 
				}
			}
		}
	}
}
MOTION
Frames: 11
Frame Time: 0.033333
-61.795780 42.355564 42.603809 -1.334393 8.391124 89.649223 0.000000 0.000000 0.000000 10.784898 -0.996003 -0.771707 9.982744 1.735099 -3.468162 -3.932335 -2.802546 -0.665178 -6.106235 7.475495 10.622518 16.698048 -37.897339 -47.016029 -7.033713 -8.197044 29.113487 8.412065 -12.959089 -4.462829 5.723794 -0.984988 10.471222 -11.252561 34.260532 -38.624271 18.662422 5.089916 24.582239 -9.510287 8.717836 -4.334979 -40.970234 6.210024 2.379277 54.400150 -1.623369 -0.307601 -1.628970 0.022122 0.817336 11.996804 -9.674963 -11.520473 50.006409 1.179659 14.114333 -37.538292 0.170408 -0.482818 
-60.358150 42.260315 42.244648 -1.685104 7.825444 89.064880 0.000000 0.000000 0.000000 10.758230 -1.416002 -0.254070 10.103758 1.413652 -3.311465 -5.374169 -2.353071 -1.114347 -5.497529 7.492872 10.581421 17.556286 -38.443718 -49.333778 -7.138265 -7.985062 29.147074 8.613531 -12.897752 -4.483333 6.223836 -1.535095 10.495504 -11.019127 33.943153 -38.546547 17.499575 5.113070 25.125866 -9.537375 8.833398 -4.348157 -41.639633 6.318158 2.579506 57.836742 -1.391176 0.003269 -2.601279 -0.015418 1.468672 13.741743 -10.161423 -11.739970 48.578693 1.114142 15.620545 -36.619709 0.219366 -0.645965 
-58.930008 42.325790 41.806164 -1.708037 7.058691 88.116585 0.000000 0.000000 0.000000 10.539742 -1.943286 0.498092 10.146556 0.955789 -2.920167 -6.568713 -1.796112 -1.670938 -4.607769 7.401136 10.382620 16.894785 -38.687088 -50.529957 -9.725692 -7.794065 28.561920 8.221359 -12.068887 -4.387628 7.018442 -1.946743 10.376655 -10.879176 33.829391 -38.971588 15.985214 5.031233 25.664793 -9.443969 8.928985 -4.338688 -41.472744 6.318151 3.191510 59.884068 -1.487667 0.812312 -4.298901 -0.078768 2.636665 14.916718 -11.384666 -12.268647 47.310478 1.052757 18.009125 -34.438816 0.358456 -1.164009 
-57.577110 42.400036 41.377956 -1.716207 6.145656 87.138123 0.000000 0.000000 0.000000 10.210586 -2.450598 1.241188 9.975682 0.751180 -2.597817 -7.160970 -1.952024 -1.925040 -3.789114 7.324305 10.093473 15.799788 -38.827621 -50.591911 -12.406192 -7.670815 28.050673 7.544231 -11.446313 -4.262411 7.878051 -2.165040 10.146597 -11.128057 33.903664 -39.550819 14.192279 4.966723 25.355511 -9.469353 9.151130 -4.366870 -41.082989 6.298797 3.786731 61.293449 -1.585659 1.560997 -5.931044 -0.175720 3.736646 15.053392 -12.487634 -12.192943 47.267609 0.751405 20.314453 -31.167807 0.585918 -2.021521 
-56.328636 42.526752 40.964504 -1.684631 5.146404 86.414894 0.000000 0.000000 0.000000 10.040228 -2.762312 1.798552 9.371047 0.351295 -2.236346 -7.431767 -2.068843 -2.159616 -3.186791 6.672394 9.924788 15.767613 -38.732567 -50.503387 -14.097692 -7.594550 27.892765 7.358127 -11.468461 -4.236191 8.421496 -2.682513 10.072202 -11.649535 34.139122 -40.948154 12.907602 4.714246 24.853477 -9.513631 9.403848 -4.385452 -40.728832 6.024653 4.189769 62.274235 -1.616634 2.113398 -7.250277 -0.289860 4.630520 14.578796 -13.465981 -12.079731 47.699257 0.389607 22.066217 -27.112131 0.665413 -2.741399 
-55.162777 42.706821 40.593925 -1.692888 3.948190 85.935806 0.000000 0.000000 0.000000 9.781417 -2.947125 2.160870 8.772918 -0.107368 -1.806656 -7.921138 -1.951611 -2.257211 -2.816587 5.950655 9.686263 15.941442 -38.524448 -49.934750 -15.006163 -7.586195 27.937613 7.543496 -11.436643 -4.261249 9.064240 -3.243358 9.928266 -11.877538 33.912643 -42.190495 12.810108 4.367138 24.496344 -9.616198 9.318684 -4.389175 -40.390060 5.840073 4.594104 62.730991 -1.785896 2.504201 -8.665092 -0.424091 5.543236 14.008140 -14.087858 -11.923058 47.564037 0.096059 22.807522 -22.981812 0.536786 -2.626241 
-54.047352 42.909607 40.254715 -1.758190 2.622008 85.718246 0.000000 0.000000 0.000000 9.310231 -3.142113 2.249139 8.119818 -0.165952 -1.582053 -7.510593 -2.137275 -2.071785 -2.722514 5.791592 9.251479 15.392231 -38.291351 -48.833946 -15.658350 -7.606138 28.152075 7.493851 -11.096528 -4.239622 9.617024 -3.304380 9.546384 -12.203576 33.839367 -43.235813 12.635172 4.084309 24.060091 -9.890282 9.143152 -4.408199 -39.995174 5.643563 4.979425 62.692844 -1.986535 3.009180 -9.976602 -0.566788 6.455612 13.137357 -14.349804 -11.571571 47.408634 -0.187465 23.196226 -18.341394 0.422170 -2.560512 
-53.003178 43.094582 39.931786 -1.867451 1.461887 86.000641 0.000000 0.000000 0.000000 8.954979 -3.210751 2.093125 7.560033 -0.048807 -1.689461 -6.787879 -2.244762 -1.974202 -2.875659 5.689809 8.895913 15.287280 -38.404316 -48.829746 -15.353131 -7.588337 28.737638 7.290443 -10.992321 -4.205666 9.081012 -3.419722 9.193098 -13.249655 35.301220 -45.402779 10.723557 3.828657 23.647322 -10.175220 9.467431 -4.462490 -39.448677 5.135992 5.094427 62.412460 -2.005218 3.347912 -11.275391 -0.693400 6.924901 12.460031 -14.110735 -10.945858 47.145893 -0.441662 22.552795 -13.721130 0.205038 -1.884429 
-52.045677 43.305565 39.630333 -2.013592 0.385905 86.544907 0.000000 0.000000 0.000000 8.638762 -3.162437 1.838528 7.207363 -0.009760 -1.943361 -6.264125 -2.068999 -2.042505 -3.160816 5.557957 8.607431 15.485455 -38.726273 -49.273697 -14.432452 -7.608137 28.963840 7.314201 -11.069527 -4.208894 8.458599 -3.525086 8.888741 -14.411892 36.483795 -46.437485 8.829793 3.884461 22.526751 -10.411687 9.972243 -4.524246 -38.660755 4.550664 4.968751 61.668003 -1.996154 3.594116 -13.061738 -0.767694 6.798300 11.636421 -13.628908 -10.254983 46.842094 -0.682574 21.644089 -8.950713 0.145382 -1.438414 
-51.162498 43.583782 39.347191 -2.201314 -0.571796 86.897873 0.000000 0.000000 0.000000 8.420951 -3.064946 1.769748 6.706878 0.058556 -2.060546 -5.230688 -1.844297 -2.237683 -3.085550 5.469163 8.390429 15.913658 -39.495735 -50.134995 -13.205605 -7.646031 29.016369 7.572689 -11.268082 -4.256702 8.374541 -3.420617 8.665644 -15.662720 36.883572 -46.492867 6.933558 4.133646 21.731752 -10.578874 10.577098 -4.602174 -37.441418 3.975093 4.737438 60.302517 -1.930354 3.732135 -14.981654 -0.848189 6.479814 9.917693 -13.404748 -9.299526 47.348701 -1.026252 22.242889 -2.663847 0.030899 -0.356266 
-50.348930 43.911224 39.089520 -2.347738 -1.360155 87.045792 0.000000 0.000000 0.000000 8.304760 -2.967273 1.808767 6.225152 0.146388 -2.080072 -4.261690 -1.844210 -2.306007 -2.825549 5.244327 8.291092 16.511133 -40.284286 -51.142349 -12.201261 -7.622545 29.390184 7.741986 -11.473024 -4.286954 8.358892 -3.309269 8.557616 -16.948051 37.502743 -47.195103 4.763838 4.206191 22.122305 -10.693384 11.021869 -4.645070 -35.952557 3.534286 4.563149 58.596611 -1.869279 3.676059 -16.511892 -0.932121 6.279835 7.436109 -13.665237 -7.766256 48.238091 -1.485166 25.238377 5.021099 0.192658 5.292344 
